<?xml version="1.0" encoding="UTF-8" standalone="no"?>
<svg
   fill="none"
   viewBox="0 0 24 24"
   version="1.1"
   id="svg1"
   sodipodi:docname="newskie.svg"
   xml:space="preserve"
   inkscape:version="1.4 (e7c3feb100, 2024-10-09)"
   xmlns:inkscape="http://www.inkscape.org/namespaces/inkscape"
   xmlns:sodipodi="http://sodipodi.sourceforge.net/DTD/sodipodi-0.dtd"
   xmlns="http://www.w3.org/2000/svg"
   xmlns:svg="http://www.w3.org/2000/svg"><defs
     id="defs1" /><sodipodi:namedview
     id="namedview1"
     pagecolor="#ffffff"
     bordercolor="#000000"
     borderopacity="0.25"
     inkscape:showpageshadow="2"
     inkscape:pageopacity="0.0"
     inkscape:pagecheckerboard="0"
     inkscape:deskcolor="#d1d1d1"
     inkscape:zoom="23.5113"
     inkscape:cx="21.181304"
     inkscape:cy="10.420521"
     inkscape:window-width="1920"
     inkscape:window-height="1011"
     inkscape:window-x="0"
     inkscape:window-y="0"
     inkscape:window-maximized="1"
     inkscape:current-layer="svg1" /><g
     style="fill:none;stroke:#31b61c;stroke-width:2;stroke-linecap:round;stroke-linejoin:round;stroke-opacity:1"
     id="g1"
     transform="matrix(0.60214215,0,0,0.60214215,5.0753581,4.774293)"><path
       d="M 7,20 H 17"
       id="path1-3"
       style="stroke:#31b61c;stroke-opacity:1" /><path
       d="m 10,20 c 5.5,-2.5 0.8,-6.4 3,-10"
       id="path2"
       style="stroke:#31b61c;stroke-opacity:1" /><path
       d="m 9.5,9.4 c 1.1,0.8 1.8,2.2 2.3,3.7 C 9.8,13.5 8.3,13.5 7,12.8 5.8,12.2 4.7,10.9 4,8.6 6.8,8.1 8.4,8.6 9.5,9.4 Z"
       id="path3"
       style="stroke:#31b61c;stroke-opacity:1" /><path
       d="M 14.1,6 A 7,7 0 0 0 13,10 c 1.9,-0.1 3.3,-0.6 4.3,-1.4 1,-1 1.6,-2.3 1.7,-4.6 -2.7,0.1 -4,1 -4.9,2 z"
       id="path4"
       style="stroke:#31b61c;stroke-opacity:1" /></g></svg>
